<svg width="213" height="83" viewBox="0 0 213 83" fill="none" xmlns="http://www.w3.org/2000/svg">
<g clip-path="url(#clip0_3_7)">
<g clip-path="url(#clip1_3_7)">
<g clip-path="url(#clip2_3_7)">
<g clip-path="url(#clip3_3_7)">
<g clip-path="url(#clip4_3_7)">
<g clip-path="url(#clip5_3_7)">
<g clip-path="url(#clip6_3_7)">
<path d="M107.52 11.4903C112.048 11.4903 115.968 12.1015 119.281 13.3238L116.576 24.1415H115.57C113.474 23.1228 111.662 22.3894 110.136 21.9412C108.601 21.4931 106.933 21.269 105.13 21.269C103.201 21.269 101.725 21.5745 100.702 22.1857C99.6706 22.7969 98.9243 23.8766 98.4631 25.4249C98.0018 26.9732 97.7712 29.2141 97.7712 32.1477C97.7712 35.1221 98.0018 37.3915 98.4631 38.9561C98.9243 40.5289 99.7125 41.629 100.828 42.2564C101.935 42.892 103.536 43.2099 105.633 43.2099C106.22 43.2099 106.975 43.1284 107.897 42.9654V41.0097L107.708 34.3479L119.218 33.5534L119.029 38.9317V49.7493C114.165 51.5421 109.323 52.4385 104.501 52.4385C97.918 52.4385 92.9494 50.7354 89.5951 47.3291C86.2408 43.931 84.5636 39.0743 84.5636 32.7589C84.5636 25.8323 86.5468 20.5559 90.5133 16.9297C94.4714 13.3034 100.14 11.4903 107.52 11.4903ZM143.055 42.2931L153.495 41.9264L154.187 42.782L153.432 51.7051H124.753L125.381 40.0929L124.753 12.1626H153.935L154.627 13.0182L153.809 21.9412L143.809 21.5745H137.331L137.205 27.1362H143.432L149.973 26.9528L150.665 27.8085L149.91 36.7315L142.614 36.5481H136.954L136.891 38.8706L137.017 42.2931H143.055ZM177.13 11.9181C183.126 11.9181 187.73 13.4949 190.942 16.6485C194.153 19.8103 195.759 24.3655 195.759 30.3142C195.759 37.363 193.893 42.782 190.162 46.5713C186.422 50.3605 181.076 52.2551 174.124 52.2551C169.755 52.2551 164.635 52.0718 158.765 51.7051L159.394 40.0929L158.765 12.1626L177.13 11.9181ZM176.501 43.1487C178.48 43.1487 179.981 42.3827 181.004 40.8507C182.036 39.3269 182.552 36.813 182.552 33.309C182.552 30.3346 182.342 27.9918 181.923 26.2805C181.503 24.5693 180.828 23.3347 179.898 22.5769C178.983 21.8272 177.705 21.4523 176.061 21.4523C174.468 21.4523 172.895 21.5338 171.344 21.6968L170.916 38.8706L171.03 42.6598C173.545 42.9858 175.369 43.1487 176.501 43.1487ZM212.728 12.1626L212.036 38.8706L212.539 51.7051H199.898L200.527 40.0929L199.898 12.1626H212.728Z" fill="#342D43"/>
</g>
</g>
<g clip-path="url(#clip7_3_7)">
<g clip-path="url(#clip8_3_7)">
<path d="M84.6374 62.4444L91.6703 62.4315L91.6068 65.0897L89.6828 65.1641L89.1938 71.1097L86.469 71.2458L86.4822 65.3028L84.5608 65.403L84.6374 62.4444ZM96.7552 62.4187L99.2713 70.858L96.0707 71.2586L95.6822 69.8435H94.2127L93.8903 71.2586L90.5999 70.9453L93.1661 62.5933L96.7552 62.4187ZM94.4823 67.9225H95.4496L94.9607 65.742L94.4823 67.9225ZM104.129 62.2543L107.174 62.6062L104.658 66.8566L106.801 70.5575L104.103 71.3716L102.942 68.8136L101.573 71.3845L98.785 70.406L101.161 66.7693L98.9938 62.9452L101.949 62.2543L103.006 64.7763L104.129 62.2543ZM107.232 62.7448L110.665 62.5676L109.954 71.1097L107.232 71.2458V62.7448ZM120.296 68.0611C120.296 68.6347 120.194 69.1355 119.989 69.5636C119.785 69.9916 119.506 70.3477 119.151 70.632C118.797 70.9162 118.382 71.1293 117.907 71.2715C117.431 71.4136 116.92 71.4846 116.374 71.4846C116.162 71.4846 115.931 71.4572 115.681 71.4024C115.429 71.3494 115.174 71.2817 114.915 71.1995C114.658 71.1174 114.409 71.03 114.169 70.9376C113.932 70.8434 113.72 70.7544 113.535 70.6705L113.818 68.0868C114.184 68.2991 114.59 68.4609 115.034 68.5722C115.479 68.6835 115.917 68.7392 116.347 68.7392C116.43 68.7392 116.53 68.7357 116.646 68.7289C116.76 68.7237 116.871 68.7049 116.976 68.6724C117.082 68.6416 117.172 68.5945 117.246 68.5311C117.318 68.4695 117.354 68.3796 117.354 68.2615C117.354 68.1827 117.329 68.1151 117.278 68.0586C117.225 68.0021 117.158 67.9558 117.077 67.9199C116.996 67.8839 116.903 67.8574 116.799 67.8403C116.697 67.8214 116.596 67.8077 116.495 67.7992C116.397 67.7906 116.304 67.7863 116.218 67.7863C116.133 67.7863 116.064 67.7863 116.012 67.7863C115.642 67.7863 115.305 67.7238 115.002 67.5989C114.699 67.4722 114.439 67.2975 114.222 67.0749C114.004 66.8506 113.835 66.5852 113.715 66.2788C113.595 65.9706 113.535 65.6367 113.535 65.2771C113.535 64.784 113.637 64.3423 113.842 63.9519C114.046 63.5615 114.319 63.2294 114.661 62.9554C115.003 62.6815 115.395 62.4709 115.837 62.3236C116.281 62.1781 116.739 62.1053 117.211 62.1053C117.423 62.1053 117.64 62.1122 117.864 62.1259C118.088 62.1413 118.311 62.1678 118.533 62.2055C118.753 62.2432 118.969 62.2911 119.18 62.3493C119.392 62.4075 119.592 62.4803 119.78 62.5676L119.535 65.1153C119.242 65.0195 118.936 64.939 118.615 64.8739C118.294 64.8089 117.981 64.7763 117.677 64.7763C117.62 64.7763 117.548 64.7772 117.46 64.7789C117.372 64.7806 117.279 64.7866 117.182 64.7969C117.085 64.8089 116.988 64.8251 116.889 64.8457C116.79 64.8662 116.702 64.8945 116.625 64.9304C116.547 64.9647 116.485 65.0118 116.437 65.0717C116.391 65.1299 116.37 65.1984 116.374 65.2771C116.377 65.3696 116.412 65.4441 116.479 65.5006C116.546 65.5571 116.633 65.6007 116.738 65.6316C116.844 65.6624 116.96 65.6846 117.087 65.6983C117.214 65.7103 117.34 65.7172 117.465 65.7189C117.589 65.7223 117.704 65.7223 117.811 65.7189C117.919 65.7172 118.008 65.7206 118.078 65.7292C118.422 65.7497 118.731 65.8208 119.006 65.9423C119.281 66.0639 119.514 66.2248 119.706 66.4252C119.898 66.6255 120.045 66.8652 120.145 67.1443C120.246 67.4216 120.296 67.7273 120.296 68.0611ZM120.864 62.3545H126.813C126.787 62.7483 126.763 63.1378 126.742 63.523C126.721 63.9066 126.693 64.2952 126.657 64.689L123.922 64.8251L123.858 65.6162H125.78L125.64 67.5603L123.702 67.622L123.639 68.5388H125.238H126.374C126.348 68.9977 126.321 69.454 126.293 69.9077C126.266 70.3614 126.241 70.816 126.219 71.2715L120.658 71.3973L120.864 62.3545ZM134.594 65.3516C134.594 65.6786 134.565 65.9749 134.507 66.2402C134.449 66.5056 134.357 66.7488 134.232 66.9696C134.107 67.1922 133.946 67.3977 133.748 67.586C133.551 67.7726 133.312 67.9524 133.032 68.1253L134.568 70.7835L131.666 71.3357L130.672 68.6647L129.871 68.6878L129.755 71.2971H126.98C127.001 70.3435 127.021 69.3949 127.04 68.4515C127.06 67.5064 127.083 66.557 127.109 65.6033C127.118 65.1222 127.127 64.6454 127.136 64.1728C127.144 63.7019 127.161 63.226 127.186 62.7448C127.487 62.6353 127.784 62.5454 128.077 62.4752C128.369 62.4033 128.662 62.3476 128.957 62.3082C129.253 62.2689 129.552 62.2415 129.855 62.2261C130.158 62.2124 130.469 62.2055 130.788 62.2055C131.278 62.2055 131.752 62.2714 132.21 62.4033C132.668 62.5351 133.073 62.7329 133.426 62.9965C133.778 63.2585 134.061 63.5864 134.274 63.9802C134.487 64.3723 134.594 64.8294 134.594 65.3516ZM131.703 65.5545C131.703 65.3782 131.678 65.2172 131.629 65.0717C131.579 64.9244 131.506 64.7977 131.409 64.6916C131.312 64.5854 131.192 64.5015 131.047 64.4399C130.904 64.38 130.736 64.35 130.542 64.35C130.456 64.35 130.372 64.3551 130.291 64.3654C130.208 64.3757 130.128 64.3911 130.051 64.4116L129.948 66.7436H130.104C130.289 66.7436 130.476 66.7214 130.667 66.6768C130.859 66.6306 131.031 66.5596 131.185 66.4637C131.336 66.3661 131.46 66.2428 131.557 66.0939C131.654 65.9432 131.703 65.7634 131.703 65.5545ZM139.864 62.4187L142.832 62.6062L140.472 71.3357L137.271 71.5103L134.367 62.6935L137.427 62.4187L138.664 67.5603L139.864 62.4187ZM143.091 62.7448L146.524 62.5676L145.813 71.1097L143.091 71.2458V62.7448ZM153.29 62.5805L152.931 65.2283C152.805 65.1941 152.68 65.171 152.555 65.159C152.43 65.1453 152.306 65.1385 152.183 65.1385C151.864 65.1385 151.56 65.1796 151.271 65.2617C150.984 65.3439 150.729 65.4681 150.507 65.6341C150.285 65.8019 150.109 66.0108 149.978 66.2608C149.846 66.5125 149.78 66.8078 149.78 67.1468C149.78 67.3643 149.816 67.5518 149.889 67.7093C149.959 67.8685 150.059 68.0004 150.187 68.1048C150.316 68.2092 150.468 68.2871 150.644 68.3385C150.822 68.3882 151.016 68.413 151.226 68.413C151.386 68.413 151.552 68.3959 151.723 68.3616C151.895 68.3291 152.065 68.2854 152.233 68.2306C152.4 68.1759 152.564 68.1134 152.724 68.0432C152.883 67.9712 153.029 67.8976 153.163 67.8223L152.904 70.7707C152.737 70.8545 152.555 70.929 152.36 70.9941C152.164 71.0574 151.962 71.1131 151.754 71.161C151.548 71.2107 151.342 71.2475 151.136 71.2715C150.93 71.2971 150.732 71.31 150.541 71.31C149.995 71.31 149.486 71.2115 149.014 71.0146C148.54 70.8177 148.128 70.5481 147.78 70.2056C147.432 69.8632 147.158 69.4591 146.958 68.9934C146.758 68.5277 146.659 68.0252 146.659 67.4858C146.659 66.7702 146.764 66.0956 146.973 65.4621C147.185 64.8286 147.495 64.2738 147.904 63.7978C148.313 63.3218 148.819 62.946 149.423 62.6704C150.028 62.393 150.724 62.2543 151.511 62.2543C151.807 62.2543 152.111 62.2774 152.423 62.3236C152.735 62.3699 153.024 62.4555 153.29 62.5805ZM153.858 62.3545H159.807C159.781 62.7483 159.757 63.1378 159.736 63.523C159.715 63.9066 159.687 64.2952 159.652 64.689L156.916 64.8251L156.853 65.6162H158.774L158.634 67.5603L156.697 67.622L156.633 68.5388H158.232H159.369C159.342 68.9977 159.315 69.454 159.287 69.9077C159.26 70.3614 159.236 70.816 159.213 71.2715L153.652 71.3973L153.858 62.3545Z" fill="#342D43"/>
</g>
</g>
</g>
</g>
<g clip-path="url(#clip9_3_7)">
<g clip-path="url(#clip10_3_7)">
<path d="M19.4066 19.372C24.8983 19.4056 29.3687 15.0802 29.4042 9.75009C29.4243 4.39855 24.9789 0.0442608 19.4862 0.0265529C13.9791 0.00325291 9.50778 4.30908 9.49243 9.64757C9.46558 15.0075 13.8908 19.3627 19.4066 19.372Z" fill="#342D43"/>
<path d="M12.2709 23.3386C12.3217 23.2808 12.3764 23.2258 12.4282 23.1699L5.58412 16.5182L2.87372 19.1521L10.4333 26.4981C10.8342 25.3396 11.448 24.2715 12.2709 23.3386Z" fill="#342D43"/>
<path d="M31.4154 39.9589C32.5567 41.095 34.215 41.7101 35.9576 41.4716L53.2472 39.0978C54.73 38.8946 55.9806 38.1117 56.7968 37.0203L54.4614 43.1091C54.0816 44.1017 54.6015 45.2061 55.6219 45.5751C56.6424 45.9451 57.7799 45.44 58.1597 44.4474L64.7573 27.239C65.1371 26.2464 64.6173 25.142 63.5968 24.773C62.5763 24.403 61.4388 24.9081 61.059 25.9007L57.7914 34.4238C57.825 34.0454 57.8183 33.6586 57.7617 33.2662C57.3521 30.4451 54.6648 28.4804 51.7606 28.8784L37.5238 30.8328L26.9901 24.1606C21.7832 18.0616 9.98924 21.9462 11.52 31.4703L16.7719 56.9688C16.8141 57.1767 16.864 57.3826 16.9197 57.5867L32.0234 42.9096L31.4154 39.9589Z" fill="#342D43"/>
<path d="M73.0544 74.166L50.0649 51.826C49.0425 50.8325 47.7046 50.3311 46.3638 50.3181C46.3964 50.3069 46.4271 50.2948 46.4597 50.2845L33.5388 50.2649L32.9279 47.3003L18.7534 61.0752C20.3158 62.9075 22.6838 64.1471 25.7385 64.1471H47.0284L47.7382 64.1601L65.5447 81.4636C67.6182 83.4776 70.9808 83.4776 73.0544 81.4636C75.1279 79.4486 75.1279 76.181 73.0544 74.166Z" fill="#342D43"/>
<path d="M13.3048 61.1013C12.9605 60.3408 12.6948 59.5439 12.5251 58.7228L8.78654 39.1686C7.62604 32.941 -0.804388 34.4247 0.379133 40.6607L3.993 60.1199C5.38464 67.1761 10.6673 73.2713 18.2595 75.4774C20.2151 76.0291 22.209 76.3124 24.155 76.3124L36.9916 76.3674C43.5057 76.3935 43.5489 68.0838 37.0664 68.1323L24.8696 68.067C23.5326 67.9701 22.1429 67.9226 20.7906 67.5293C18.6633 66.9132 16.8496 65.7669 15.4494 64.2878L18.7544 61.0761C17.8883 60.0593 17.2707 58.8617 16.9216 57.5895L13.3048 61.1013Z" fill="#342D43"/>
</g>
</g>
</g>
</g>
</g>
<defs>
<clipPath id="clip0_3_7">
<rect width="213" height="83" fill="white"/>
</clipPath>
<clipPath id="clip1_3_7">
<rect width="212.469" height="82.9477" fill="white" transform="translate(0.265564 0.0264587)"/>
</clipPath>
<clipPath id="clip2_3_7">
<rect width="212.469" height="82.9477" fill="white" transform="translate(0.265564 0.0264587)"/>
</clipPath>
<clipPath id="clip3_3_7">
<rect width="128.177" height="60.02" fill="white" transform="translate(84.5575 11.4903)"/>
</clipPath>
<clipPath id="clip4_3_7">
<rect width="128.177" height="60.02" fill="white" transform="translate(84.5575 11.4903)"/>
</clipPath>
<clipPath id="clip5_3_7">
<rect width="128.177" height="40.9482" fill="white" transform="translate(84.5575 11.4903)"/>
</clipPath>
<clipPath id="clip6_3_7">
<rect width="128.177" height="40.9482" fill="white" transform="translate(84.5575 11.4903)"/>
</clipPath>
<clipPath id="clip7_3_7">
<rect width="75.2527" height="9.40496" fill="white" transform="translate(84.5575 62.1053)"/>
</clipPath>
<clipPath id="clip8_3_7">
<rect width="75.2527" height="9.40496" fill="white" transform="translate(84.5575 62.1053)"/>
</clipPath>
<clipPath id="clip9_3_7">
<rect width="74.344" height="82.9477" fill="white" transform="translate(0.265564 0.0264587)"/>
</clipPath>
<clipPath id="clip10_3_7">
<rect width="74.344" height="82.9477" fill="white" transform="translate(0.265564 0.0264587)"/>
</clipPath>
</defs>
</svg>
