<svg width="176" height="52" viewBox="0 0 176 52" fill="none" xmlns="http://www.w3.org/2000/svg">
<g clip-path="url(#clip0_20_30)">
<g clip-path="url(#clip1_20_30)">
<g clip-path="url(#clip2_20_30)">
<g clip-path="url(#clip3_20_30)">
<g clip-path="url(#clip4_20_30)">
<path d="M13.12 12.1367C16.8327 12.1577 19.8549 9.44782 19.8789 6.10848C19.8925 2.75571 16.8872 0.0277242 13.1738 0.01663C9.45066 0.00203245 6.42782 2.69966 6.41744 6.04425C6.39929 9.40227 9.39101 12.1308 13.12 12.1367Z" fill="#342D43"/>
<path d="M8.29584 14.6218C8.33021 14.5856 8.36716 14.5511 8.40218 14.5161L3.77519 10.3488L1.94281 11.9989L7.05351 16.6012C7.32454 15.8754 7.73951 15.2063 8.29584 14.6218Z" fill="#342D43"/>
<path d="M21.2386 25.0345C22.0102 25.7463 23.1313 26.1316 24.3094 25.9822L35.9982 24.495C37.0006 24.3677 37.8461 23.8772 38.3979 23.1934L36.819 27.0081C36.5623 27.6299 36.9137 28.3219 37.6036 28.5531C38.2935 28.7849 39.0625 28.4684 39.3193 27.8466L43.7796 17.0654C44.0364 16.4435 43.6849 15.7516 42.995 15.5204C42.3052 15.2886 41.5361 15.6051 41.2794 16.2269L39.0703 21.5667C39.093 21.3296 39.0884 21.0873 39.0502 20.8415C38.7733 19.074 36.9565 17.8432 34.9931 18.0925L25.3683 19.3169L18.2469 15.1368C14.7267 11.3157 6.75333 13.7494 7.78818 19.7163L11.3388 35.6913C11.3674 35.8215 11.4011 35.9505 11.4387 36.0784L21.6497 26.8831L21.2386 25.0345Z" fill="#342D43"/>
<path d="M49.3889 46.4655L33.8467 32.4693C33.1556 31.8469 32.251 31.5328 31.3446 31.5246C31.3666 31.5176 31.3874 31.51 31.4094 31.5036L22.6742 31.4913L22.2611 29.6339L12.6784 38.264C13.7347 39.4119 15.3356 40.1885 17.4007 40.1885H31.7939L32.2737 40.1967L44.3119 51.0374C45.7138 52.2992 47.9871 52.2992 49.3889 51.0374C50.7908 49.775 50.7908 47.7279 49.3889 46.4655Z" fill="#342D43"/>
<path d="M8.99484 38.2803C8.76207 37.8039 8.58246 37.3046 8.46769 36.7902L5.94023 24.5394C5.15566 20.6377 -0.543782 21.5673 0.256344 25.4742L2.69952 37.6655C3.64035 42.0862 7.21174 45.9049 12.3445 47.287C13.6666 47.6327 15.0146 47.8102 16.3302 47.8102L25.0084 47.8447C29.4123 47.861 29.4415 42.6549 25.059 42.6853L16.8133 42.6444C15.9094 42.5837 14.9699 42.5539 14.0556 42.3075C12.6175 41.9215 11.3913 41.2033 10.4447 40.2767L12.6791 38.2646C12.0936 37.6275 11.676 36.8772 11.44 36.0802L8.99484 38.2803Z" fill="#342D43"/>
</g>
</g>
</g>
</g>
</g>
<path d="M77.4938 5C81.7336 5 85.4043 5.59702 88.5056 6.79105L85.9735 17.3582H85.0313C83.0684 16.3632 81.3725 15.6468 79.9435 15.209C78.5066 14.7711 76.9442 14.5522 75.2561 14.5522C73.4502 14.5522 72.0683 14.8507 71.1104 15.4478C70.1447 16.0448 69.4459 17.0995 69.014 18.6119C68.5822 20.1244 68.3663 22.3134 68.3663 25.1791C68.3663 28.0846 68.5822 30.3015 69.014 31.8299C69.4459 33.3662 70.1839 34.4408 71.2282 35.0537C72.2646 35.6746 73.7643 35.9851 75.7272 35.9851C76.2768 35.9851 76.9834 35.9055 77.8471 35.7463V33.8358L77.6704 27.3284L88.4468 26.5522L88.2701 31.806V42.3731C83.7162 44.1244 79.1819 45 74.6672 45C68.5037 45 63.8516 43.3363 60.711 40.009C57.5703 36.6896 56 31.9453 56 25.7761C56 19.01 57.8569 13.8557 61.5707 10.3134C65.2767 6.77115 70.5844 5 77.4938 5ZM110.765 35.0896L120.54 34.7313L121.188 35.5672L120.481 44.2836H93.6288L94.2177 32.9403L93.6288 5.65672H120.952L121.6 6.49254L120.835 15.209L111.472 14.8507H105.406L105.288 20.2836H111.118L117.243 20.1045L117.89 20.9403L117.184 29.6567L110.353 29.4776H105.053L104.994 31.7463L105.112 35.0896H110.765ZM142.67 5.41791C148.284 5.41791 152.594 6.95821 155.602 10.0388C158.609 13.1274 160.112 17.5771 160.112 23.3881C160.112 30.2736 158.365 35.5672 154.871 39.2687C151.37 42.9701 146.364 44.8209 139.855 44.8209C135.764 44.8209 130.971 44.6418 125.475 44.2836L126.064 32.9403L125.475 5.65672L142.67 5.41791ZM142.081 35.9254C143.934 35.9254 145.339 35.1771 146.297 33.6806C147.263 32.192 147.746 29.7363 147.746 26.3134C147.746 23.408 147.55 21.1194 147.157 19.4478C146.765 17.7761 146.132 16.5702 145.261 15.8299C144.405 15.0975 143.208 14.7313 141.669 14.7313C140.177 14.7313 138.705 14.8109 137.252 14.9702L136.852 31.7463L136.958 35.4478C139.313 35.7662 141.021 35.9254 142.081 35.9254ZM176 5.65672L175.352 31.7463L175.823 44.2836H163.987L164.576 32.9403L163.987 5.65672H176Z" fill="#342D43"/>
<defs>
<clipPath id="clip0_20_30">
<rect width="144" height="52" fill="white"/>
</clipPath>
<clipPath id="clip1_20_30">
<rect width="143.641" height="51.9672" fill="white" transform="translate(0.179565 0.016571)"/>
</clipPath>
<clipPath id="clip2_20_30">
<rect width="143.641" height="51.9672" fill="white" transform="translate(0.179565 0.016571)"/>
</clipPath>
<clipPath id="clip3_20_30">
<rect width="50.2607" height="51.9672" fill="white" transform="translate(0.179565 0.016571)"/>
</clipPath>
<clipPath id="clip4_20_30">
<rect width="50.2607" height="51.9672" fill="white" transform="translate(0.179565 0.016571)"/>
</clipPath>
</defs>
</svg>
