<svg width="26" height="21" viewBox="0 0 26 21" fill="none" xmlns="http://www.w3.org/2000/svg">
<path d="M25.6607 12.1116C25.483 10.656 24.5824 9.41761 23.3144 8.88317L22.1392 3.5561C21.5577 1.40095 19.696 -0.0589995 17.6123 0.00183159H8.38467C6.30089 -0.0589995 4.43921 1.40095 3.85769 3.5561L2.68254 8.88317C1.41046 9.41761 0.513952 10.656 0.336266 12.1116L0.00108436 15.5051C-0.0352606 17.0258 0.845096 18.3989 2.18178 18.8942C2.50485 20.1847 3.61943 21.0581 4.86324 20.9929C5.98589 20.9538 7.00759 20.2803 7.54469 19.2158H18.4401C18.8964 20.3629 19.9787 21.0798 21.1377 20.9929C22.3815 21.0581 23.4961 20.1847 23.8192 18.8942C25.1397 18.3728 26.012 17.0171 25.9999 15.5051L25.6607 12.1116ZM6.03839 8.55729L7.04394 4.52071C7.27412 3.83853 7.87987 3.38665 8.55427 3.39099H17.6123C18.2867 3.38665 18.8924 3.83853 19.1226 4.52071L20.1322 8.55729C20.1806 8.78758 20.1201 9.0309 19.9706 9.2047C19.801 9.40892 19.5547 9.52624 19.3003 9.53058H6.87433C6.61991 9.53058 6.37358 9.41327 6.20397 9.2047C6.09089 9.15691 6.00205 9.05263 5.96974 8.92662C5.93743 8.79627 5.96166 8.66157 6.03839 8.55729ZM7.20951 15.3399C6.82991 15.6702 6.35338 15.8396 5.86878 15.8266C5.38418 15.8396 4.9117 15.6702 4.53209 15.3399C4.32614 14.9445 4.20903 14.5013 4.19691 14.0495C4.1848 13.5628 4.36652 13.0935 4.69363 12.7546C5.07323 12.4244 5.54975 12.2549 6.03435 12.268C6.52299 12.2506 6.99548 12.4244 7.37508 12.7546C7.70622 13.0892 7.88795 13.5585 7.87583 14.0451C7.75468 14.5274 7.5245 14.9706 7.20951 15.3399ZM21.2993 15.3399C20.5037 15.9874 19.4093 15.9874 18.6178 15.3399C18.2947 15.001 18.113 14.5318 18.113 14.0495C18.113 13.5672 18.2947 13.0979 18.6178 12.759C19.4134 12.1116 20.5077 12.1116 21.2993 12.759C21.6223 13.0979 21.804 13.5672 21.804 14.0495C21.804 14.5318 21.6223 14.9967 21.2993 15.3399Z" fill="#342D43"/>
</svg>
