<svg width="24" height="24" viewBox="0 0 24 24" fill="none" xmlns="http://www.w3.org/2000/svg">
<g clip-path="url(#clip0_12_125)">
<path d="M18.8 13.3C15.9 13.3 13.6 15.6 13.6 18.5C13.6 21.4 15.9 23.7 18.8 23.7C21.7 23.7 24 21.4 24 18.5C24 15.6 21.7 13.3 18.8 13.3ZM18.8 22.4C16.7 22.4 15 20.7 15 18.6C15 16.5 16.7 14.8 18.8 14.8C20.9 14.8 22.6 16.5 22.6 18.6C22.6 20.7 20.9 22.4 18.8 22.4Z" fill="#342D43"/>
<path d="M19.5 18.3V15.9C19.5 15.5 19.2 15.2 18.8 15.2C18.4 15.2 18.1 15.5 18.1 15.9V18.6C18.1 18.8 18.2 18.9 18.3 19.1L19.7 20.5C19.8 20.6 20 20.7 20.2 20.7C20.4 20.7 20.5 20.6 20.7 20.5C21 20.2 21 19.8 20.7 19.5L19.5 18.3Z" fill="#342D43"/>
<path d="M12.3 18.5C12.3 16.8 12.9 15.3 14 14.2V10.3H18V12.2C18.3 12.2 18.5 12.1 18.8 12.1C19.2 12.1 19.6 12.1 20 12.2V5.3C20 3.6 18.7 2.3 17 2.3H15V1.3C15 0.7 14.6 0.3 14 0.3C13.4 0.3 13 0.7 13 1.3V2.3H7V1.3C7 0.7 6.6 0.3 6 0.3C5.4 0.3 5 0.7 5 1.3V2.3H3C1.3 2.3 0 3.6 0 5.3V19.3C0 21 1.3 22.3 3 22.3H13.5C12.8 21.2 12.3 19.9 12.3 18.5ZM2 5.3C2 4.7 2.4 4.3 3 4.3H5V5.3C5 5.9 5.4 6.3 6 6.3C6.6 6.3 7 5.9 7 5.3V4.3H13V5.3C13 5.9 13.4 6.3 14 6.3C14.6 6.3 15 5.9 15 5.3V4.3H17C17.6 4.3 18 4.7 18 5.3V8.3H2V5.3ZM6 20.3H3C2.4 20.3 2 19.9 2 19.3V16.2H6V20.3ZM6 14.2H2V10.3H6V14.2ZM12 20.3H8V16.2H12V20.3ZM12 14.2H8V10.3H12V14.2Z" fill="#342D43"/>
</g>
<defs>
<clipPath id="clip0_12_125">
<rect width="24" height="24" fill="white"/>
</clipPath>
</defs>
</svg>
