<svg width="34" height="32" viewBox="0 0 34 32" fill="none" xmlns="http://www.w3.org/2000/svg">
<mask id="mask0_12_29" style="mask-type:alpha" maskUnits="userSpaceOnUse" x="0" y="0" width="34" height="32">
<rect x="0.431519" width="33.0622" height="32" fill="#D9D9D9"/>
</mask>
<g mask="url(#mask0_12_29)">
<path d="M19.9281 12C19.5742 12 19.2784 11.885 19.0409 11.6551C18.8034 11.4252 18.6846 11.1363 18.6846 10.7885V5.87815C18.6846 5.53035 18.8043 5.2415 19.0437 5.01159C19.2831 4.78166 19.5798 4.66669 19.9337 4.66669H27.4286C27.7825 4.66669 28.0782 4.78166 28.3157 5.01159C28.5533 5.2415 28.6721 5.53035 28.6721 5.87815V10.7885C28.6721 11.1363 28.5524 11.4252 28.3129 11.6551C28.0735 11.885 27.7768 12 27.4229 12H19.9281ZM6.49657 16.6666C6.14267 16.6666 5.84694 16.5516 5.6094 16.3216C5.37183 16.0916 5.25305 15.8066 5.25305 15.4666V5.86646C5.25305 5.52646 5.37276 5.2415 5.61219 5.01159C5.85162 4.78166 6.14829 4.66669 6.50222 4.66669H13.997C14.3509 4.66669 14.6467 4.7817 14.8842 5.01172C15.1218 5.24172 15.2405 5.52672 15.2405 5.86672V15.4669C15.2405 15.8069 15.1208 16.0918 14.8814 16.3217C14.642 16.5517 14.3453 16.6666 13.9914 16.6666H6.49657ZM19.9281 27.3333C19.5742 27.3333 19.2784 27.2183 19.0409 26.9883C18.8034 26.7583 18.6846 26.4733 18.6846 26.1333V16.5331C18.6846 16.1931 18.8043 15.9082 19.0437 15.6783C19.2831 15.4483 19.5798 15.3334 19.9337 15.3334H27.4286C27.7825 15.3334 28.0782 15.4484 28.3157 15.6784C28.5533 15.9084 28.6721 16.1934 28.6721 16.5334V26.1335C28.6721 26.4735 28.5524 26.7585 28.3129 26.9884C28.0735 27.2183 27.7768 27.3333 27.4229 27.3333H19.9281ZM6.49657 27.3333C6.14267 27.3333 5.84694 27.2183 5.6094 26.9884C5.37183 26.7585 5.25305 26.4696 5.25305 26.1218V21.2115C5.25305 20.8636 5.37276 20.5748 5.61219 20.3449C5.85162 20.1149 6.14829 20 6.50222 20H13.997C14.3509 20 14.6467 20.1149 14.8842 20.3449C15.1218 20.5748 15.2405 20.8636 15.2405 21.2115V26.1218C15.2405 26.4696 15.1208 26.7585 14.8814 26.9884C14.642 27.2183 14.3453 27.3333 13.9914 27.3333H6.49657Z" fill="#342D43"/>
</g>
</svg>
