<svg width="24" height="24" viewBox="0 0 24 24" fill="none" xmlns="http://www.w3.org/2000/svg">
<path d="M14.9281 7.99999C14.5742 7.99999 14.2784 7.88503 14.0409 7.65512C13.8034 7.42521 13.6846 7.13634 13.6846 6.78852V1.87815C13.6846 1.53035 13.8043 1.2415 14.0437 1.01159C14.2831 0.781655 14.5798 0.666687 14.9337 0.666687H22.4286C22.7825 0.666687 23.0782 0.781655 23.3157 1.01159C23.5533 1.2415 23.6721 1.53035 23.6721 1.87815V6.78852C23.6721 7.13634 23.5524 7.42521 23.3129 7.65512C23.0735 7.88503 22.7768 7.99999 22.4229 7.99999H14.9281ZM1.49657 12.6666C1.14267 12.6666 0.846944 12.5516 0.609401 12.3216C0.371835 12.0916 0.253052 11.8066 0.253052 11.4666V1.86646C0.253052 1.52646 0.372764 1.2415 0.61219 1.01159C0.851616 0.781655 1.14829 0.666687 1.50222 0.666687H8.99702C9.35094 0.666687 9.64668 0.781699 9.88422 1.01172C10.1218 1.24172 10.2405 1.52672 10.2405 1.86672V11.4669C10.2405 11.8069 10.1208 12.0918 9.88143 12.3217C9.64201 12.5517 9.34533 12.6666 8.9914 12.6666H1.49657ZM14.9281 23.3333C14.5742 23.3333 14.2784 23.2183 14.0409 22.9883C13.8034 22.7583 13.6846 22.4733 13.6846 22.1333V12.5331C13.6846 12.1931 13.8043 11.9082 14.0437 11.6783C14.2831 11.4483 14.5798 11.3334 14.9337 11.3334H22.4286C22.7825 11.3334 23.0782 11.4484 23.3157 11.6784C23.5533 11.9084 23.6721 12.1934 23.6721 12.5334V22.1335C23.6721 22.4735 23.5524 22.7585 23.3129 22.9884C23.0735 23.2183 22.7768 23.3333 22.4229 23.3333H14.9281ZM1.49657 23.3333C1.14267 23.3333 0.846944 23.2183 0.609401 22.9884C0.371835 22.7585 0.253052 22.4696 0.253052 22.1218V17.2115C0.253052 16.8636 0.372764 16.5748 0.61219 16.3449C0.851616 16.1149 1.14829 16 1.50222 16H8.99702C9.35094 16 9.64668 16.1149 9.88422 16.3449C10.1218 16.5748 10.2405 16.8636 10.2405 17.2115V22.1218C10.2405 22.4696 10.1208 22.7585 9.88143 22.9884C9.64201 23.2183 9.34533 23.3333 8.9914 23.3333H1.49657Z" fill="#342D43"/>
</svg>
