<svg width="35" height="30" viewBox="0 0 35 30" fill="none" xmlns="http://www.w3.org/2000/svg">
<path d="M5.94531 5.07015H29.11V6.11518H5.94531V5.07015ZM23.6237 28.0607H11.4317C10.7714 28.0607 10.2125 27.8757 9.75538 27.5053C9.29793 27.1366 9.04404 26.6467 8.99332 26.0358L7.16452 5.65784L8.38372 5.52713L10.2125 25.9051C10.314 26.6467 10.7203 27.0156 11.4317 27.0156H23.6237C24.3347 27.0156 24.7411 26.6467 24.8429 25.9051L26.6717 5.52713L27.8909 5.65784L26.0621 26.0358C26.0114 26.6018 25.7444 27.0809 25.262 27.4727C24.7794 27.8645 24.2333 28.0607 23.6237 28.0607ZM23.0141 5.59267H21.7949V4.02512C21.7949 3.32956 21.3885 2.98009 20.5756 2.98009L14.4797 2.98009C13.6669 2.98009 13.2605 3.32953 13.2605 4.02512V5.59267H12.0413V4.02512C12.0413 3.41539 12.2699 2.91461 12.727 2.52278C13.1844 2.13098 13.7683 1.93506 14.4797 1.93506H20.5757C21.2867 1.93506 21.871 2.13098 22.3284 2.52278C22.7855 2.91458 23.0141 3.41536 23.0141 4.02512V5.59267H23.0141ZM13.8701 8.20522L14.4797 24.9256H13.2605L12.6509 8.20522H13.8701ZM16.9181 8.20522H18.1373V24.9256H16.9181V8.20522ZM21.1853 8.20522H22.4045L21.7949 24.9256H20.5757L21.1853 8.20522Z" fill="black"/>
</svg>
