<svg width="24" height="25" viewBox="0 0 24 25" fill="none" xmlns="http://www.w3.org/2000/svg">
<path d="M6.90013 5.24612C6.90013 2.35184 9.18862 0 11.9998 0C14.8109 0 17.0994 2.3558 17.0994 5.24612C17.0994 8.14039 14.8109 10.4922 11.9998 10.4922C9.18862 10.4922 6.90013 8.13643 6.90013 5.24612ZM11.9998 19.4997C8.68579 19.4997 6.00136 21.515 6.00136 23.9975H18.0021C17.9981 21.515 15.3137 19.4997 11.9998 19.4997ZM12.17 18.015L16.8499 12.3214C15.3256 12.1195 13.2509 12.0047 11.9998 12.0047C10.3645 12.0047 7.31982 12.1948 5.94197 12.5313C5.37183 12.6699 4.86899 12.9985 4.47702 13.438L1.69361 18.2525L0.525602 19.5631C-0.175201 20.351 -0.175201 21.6417 0.525602 22.4296L1.91929 23.9936H4.50077C4.50077 20.6875 7.86621 17.9952 12.0037 17.9952C12.0591 17.9991 12.1106 18.015 12.17 18.015ZM23.4739 19.567L22.3059 18.2565L19.5185 13.4419C19.2295 13.1173 18.8652 12.8837 18.4693 12.7095L13.9359 18.2327C17.131 18.9217 19.5027 21.2339 19.5027 24.0015H22.0842L23.4779 22.4375C24.1747 21.6417 24.1747 20.3549 23.4739 19.567Z" fill="#342D43"/>
</svg>
