<svg width="32" height="32" viewBox="0 0 32 32" fill="none" xmlns="http://www.w3.org/2000/svg">
<path d="M15.9531 3.98828C12.6588 3.98828 9.97071 6.67638 9.97071 9.97071C9.97071 13.265 12.6588 15.9531 15.9531 15.9531C18.3282 15.9531 20.5496 14.5572 22.2546 13.2571C23.9696 11.9489 25.1681 10.6407 25.1681 10.6407L25.7843 9.97071L25.1601 9.2927C25.1601 9.2927 23.9536 7.98454 22.2486 6.68436C20.5317 5.38219 18.3122 3.98828 15.9531 3.98828ZM15.9531 15.9531C10.4533 15.9531 5.98242 20.424 5.98242 25.9238H7.97656C7.97656 21.5228 11.5521 17.9473 15.9531 17.9473C17.8077 17.9473 19.4887 18.6093 20.8448 19.6622L22.2407 18.2424C20.5157 16.8405 18.3421 15.9531 15.9531 15.9531ZM15.9531 5.98242C17.4567 5.98242 19.4748 7.0792 21.0322 8.2717C22.1529 9.1212 22.5278 9.55792 22.9406 9.97071C22.5358 10.3895 22.1629 10.8202 21.0462 11.6697C19.4927 12.8602 17.4826 13.959 15.9531 13.959C13.7396 13.959 11.9648 12.1842 11.9648 9.97071C11.9648 7.75721 13.7396 5.98242 15.9531 5.98242ZM28.3228 15.9611C27.9917 15.9635 27.6644 16.0316 27.3597 16.1613C27.0551 16.291 26.7792 16.4799 26.548 16.7169L17.2453 26.1731L15.8594 32L21.6863 30.6201L21.8817 30.4186L31.1505 21.3134C32.1396 20.3462 32.1555 18.719 31.1664 17.7379L30.1215 16.685C29.8853 16.4503 29.6044 16.2653 29.2954 16.141C28.9865 16.0167 28.6558 15.9555 28.3228 15.9611ZM28.3388 17.9393C28.4704 17.9393 28.604 17.9931 28.7117 18.1028L29.7566 19.1477C29.9759 19.3571 29.9759 19.6762 29.7566 19.8956L20.6892 28.7974L18.5395 29.3199L19.054 27.1702L27.9718 18.1028C28.0183 18.0516 28.0749 18.0106 28.1381 17.9825C28.2013 17.9543 28.2696 17.9396 28.3388 17.9393Z" fill="black"/>
</svg>
