<svg xmlns="http://www.w3.org/2000/svg" version="1.1" xmlns:xlink="http://www.w3.org/1999/xlink" xmlns:svgjs="http://svgjs.dev/svgjs" width="1000" height="401" viewBox="0 0 1000 401"><g transform="matrix(1,0,0,1,-0.6060588718515874,-0.12640943386205095)"><svg viewBox="0 0 396 159" data-background-color="#ffbe79" preserveAspectRatio="xMidYMid meet" height="401" width="1000" xmlns="http://www.w3.org/2000/svg" xmlns:xlink="http://www.w3.org/1999/xlink"><g id="tight-bounds" transform="matrix(1,0,0,1,0.23999931325323587,0.05012246800038156)"><svg viewBox="0 0 395.52 158.89974873543537" height="158.89974873543537" width="395.52"><g><svg viewBox="0 0 655.6226043356022 263.3956995706891" height="158.89974873543537" width="395.52"><g transform="matrix(1,0,0,1,260.1026043356022,36.402734166426654)"><svg viewBox="0 0 395.52 190.59023123783578" height="190.59023123783578" width="395.52"><g id="textblocktransform"><svg viewBox="0 0 395.52 190.59023123783578" height="190.59023123783578" width="395.52" id="textblock"><g><svg viewBox="0 0 395.52 130.0286555446516" height="130.0286555446516" width="395.52"><g transform="matrix(1,0,0,1,0,0)"><svg width="395.52" viewBox="0.8500000238418579 -32.900001525878906 101.88999938964844 33.5" height="130.0286555446516" data-palette-color="#374151"><path d="M19.1-32.9Q24.5-32.9 28.45-31.4L28.45-31.4 26.3-22.55 25.5-22.55Q23-23.8 21.18-24.35 19.35-24.9 17.2-24.9L17.2-24.9Q14.9-24.9 13.68-24.15 12.45-23.4 11.9-21.5 11.35-19.6 11.35-16L11.35-16Q11.35-12.35 11.9-10.43 12.45-8.5 13.78-7.73 15.1-6.95 17.6-6.95L17.6-6.95Q18.3-6.95 19.4-7.15L19.4-7.15 19.4-8.75 19.25-14.2 28.4-14.85 28.25-10.45 28.25-1.6Q22.45 0.6 16.7 0.6L16.7 0.6Q8.85 0.6 4.85-3.58 0.85-7.75 0.85-15.5L0.85-15.5Q0.85-24 5.58-28.45 10.3-32.9 19.1-32.9L19.1-32.9ZM47.35-7.7L55.65-8 56.2-7.3 55.6 0 32.8 0 33.3-9.5 32.8-32.35 56-32.35 56.55-31.65 55.9-24.35 47.95-24.65 42.8-24.65 42.7-20.1 47.65-20.1 52.85-20.25 53.4-19.55 52.8-12.25 47-12.4 42.5-12.4 42.45-10.5 42.55-7.7 47.35-7.7ZM74.44-32.55Q81.59-32.55 85.42-28.68 89.25-24.8 89.25-17.5L89.25-17.5Q89.25-8.85 84.8-4.2 80.34 0.45 72.05 0.45L72.05 0.45Q66.84 0.45 59.84 0L59.84 0 60.34-9.5 59.84-32.35 74.44-32.55ZM73.94-7Q76.3-7 77.52-8.88 78.75-10.75 78.75-15.05L78.75-15.05Q78.75-18.7 78.25-20.8 77.75-22.9 76.64-23.83 75.55-24.75 73.59-24.75L73.59-24.75Q71.69-24.75 69.84-24.55L69.84-24.55 69.5-10.5 69.59-7.4Q72.59-7 73.94-7L73.94-7ZM102.74-32.35L102.19-10.5 102.59 0 92.54 0 93.04-9.5 92.54-32.35 102.74-32.35Z" opacity="1" transform="matrix(1,0,0,1,0,0)" fill="#374151" class="wordmark-text-0" data-fill-palette-color="primary" id="text-0"></path></svg></g></svg></g><g transform="matrix(1,0,0,1,0,160.72530043101077)"><svg viewBox="0 0 232.209792 29.864930806825" height="29.864930806825" width="232.209792"><g transform="matrix(1,0,0,1,0,0)"><svg width="232.209792" viewBox="0.15000000596046448 -36.18000030517578 284.7099914550781 36.619998931884766" height="29.864930806825" data-palette-color="#374151"><path d="M0.44-34.86L27.05-34.91 26.81-24.56 19.53-24.27 17.68-1.12 7.37-0.59 7.42-23.73 0.15-23.34 0.44-34.86ZM46.29-34.96L55.81-2.1 43.7-0.54 42.23-6.05 36.67-6.05 35.45-0.54 23-1.76 32.71-34.28 46.29-34.96ZM37.69-13.53L41.35-13.53 39.5-22.02 37.69-13.53ZM74.19-35.6L85.71-34.23 76.19-17.68 84.3-3.27 74.09-0.1 69.7-10.06 64.52-0.05 53.97-3.86 62.96-18.02 54.76-32.91 65.94-35.6 69.94-25.78 74.19-35.6ZM85.93-33.69L98.92-34.38 96.23-1.12 85.93-0.59 85.93-33.69ZM135.36-12.99L135.36-12.99Q135.36-9.64 134.2-7.14 133.04-4.64 131.03-2.98 129.02-1.32 126.32-0.49 123.62 0.34 120.52 0.34L120.52 0.34Q119.32 0.34 117.9 0.02 116.47-0.29 115-0.77 113.54-1.25 112.18-1.79 110.83-2.34 109.78-2.83L109.78-2.83 110.85-12.89Q112.93-11.65 115.45-11 117.98-10.35 120.42-10.35L120.42-10.35Q120.89-10.35 121.55-10.39 122.2-10.42 122.8-10.61 123.4-10.79 123.82-11.16 124.23-11.52 124.23-12.21L124.23-12.21Q124.23-12.67 123.94-13 123.64-13.33 123.18-13.54 122.72-13.75 122.13-13.85 121.55-13.96 120.98-14.01 120.42-14.06 119.93-14.06 119.45-14.06 119.15-14.06L119.15-14.06Q117.05-14.06 115.33-14.79 113.61-15.53 112.38-16.83 111.14-18.14 110.46-19.93 109.78-21.73 109.78-23.83L109.78-23.83Q109.78-26.71 110.94-28.99 112.1-31.27 114.04-32.87 115.98-34.47 118.49-35.33 121.01-36.18 123.69-36.18L123.69-36.18Q124.89-36.18 126.16-36.1 127.43-36.01 128.69-35.79 129.94-35.57 131.14-35.23 132.34-34.89 133.41-34.38L133.41-34.38 132.48-24.46Q130.82-25.02 129-25.4 127.18-25.78 125.45-25.78L125.45-25.78Q125.13-25.78 124.63-25.77 124.13-25.76 123.58-25.7 123.03-25.63 122.47-25.51 121.91-25.39 121.47-25.18 121.03-24.98 120.76-24.63 120.5-24.29 120.52-23.83L120.52-23.83Q120.54-23.29 120.92-22.96 121.3-22.63 121.9-22.45 122.5-22.27 123.22-22.19 123.94-22.12 124.65-22.11 125.35-22.09 125.96-22.11 126.57-22.12 126.97-22.07L126.97-22.07Q128.92-21.95 130.48-21.24 132.04-20.53 133.13-19.36 134.22-18.19 134.79-16.56 135.36-14.94 135.36-12.99ZM137.51-35.21L160.02-35.21Q159.87-32.91 159.75-30.66 159.63-28.42 159.43-26.12L159.43-26.12 149.08-25.59 148.84-22.51 156.11-22.51 155.58-14.94 148.25-14.7 148.01-11.13 154.06-11.13 158.36-11.13Q158.21-8.45 158.05-5.8 157.9-3.15 157.77-0.49L157.77-0.49 136.73 0 137.51-35.21ZM189.46-23.54L189.46-23.54Q189.46-21.63 189.13-20.08 188.8-18.53 188.09-17.24 187.38-15.94 186.26-14.84 185.14-13.75 183.55-12.74L183.55-12.74 189.36-2.39 178.38-0.24 174.62-10.64 171.59-10.55 171.15-0.39 160.65-0.39Q160.77-5.96 160.88-11.47 160.99-16.99 161.14-22.56L161.14-22.56Q161.19-25.37 161.24-28.13 161.29-30.88 161.43-33.69L161.43-33.69Q163.14-34.33 164.8-34.74 166.46-35.16 168.13-35.39 169.81-35.62 171.53-35.71 173.25-35.79 175.06-35.79L175.06-35.79Q177.84-35.79 180.44-35.02 183.04-34.25 185.04-32.71 187.04-31.18 188.25-28.88 189.46-26.59 189.46-23.54ZM178.52-22.75L178.52-22.75Q178.52-23.78 178.24-24.63 177.96-25.49 177.41-26.11 176.86-26.73 176.04-27.09 175.23-27.44 174.13-27.44L174.13-27.44Q173.64-27.44 173.18-27.38 172.71-27.32 172.27-27.2L172.27-27.2 171.88-18.12 172.47-18.12Q173.52-18.12 174.6-18.38 175.69-18.65 176.56-19.21 177.42-19.78 177.97-20.65 178.52-21.53 178.52-22.75ZM209.4-34.96L220.63-34.23 211.7-0.24 199.59 0.44 188.6-33.89 200.18-34.96 204.86-14.94 209.4-34.96ZM221.61-33.69L234.6-34.38 231.91-1.12 221.61-0.59 221.61-33.69ZM260.2-34.33L260.2-34.33 258.84-24.02Q258.13-24.22 257.42-24.29 256.71-24.37 256.01-24.37L256.01-24.37Q254.2-24.37 252.56-23.89 250.93-23.41 249.67-22.44 248.41-21.46 247.67-20 246.92-18.53 246.92-16.55L246.92-16.55Q246.92-15.28 247.33-14.36 247.73-13.43 248.46-12.82 249.19-12.21 250.19-11.91 251.2-11.62 252.39-11.62L252.39-11.62Q253.3-11.62 254.27-11.82 255.25-12.01 256.2-12.33 257.15-12.65 258.06-13.06 258.96-13.48 259.72-13.92L259.72-13.92 258.74-2.44Q257.79-1.95 256.68-1.57 255.57-1.2 254.39-0.92 253.22-0.63 252.05-0.49 250.88-0.34 249.8-0.34L249.8-0.34Q246.7-0.34 244.02-1.49 241.33-2.64 239.35-4.64 237.38-6.64 236.24-9.36 235.11-12.08 235.11-15.23L235.11-15.23Q235.11-19.41 236.3-23.11 237.5-26.81 239.82-29.59 242.14-32.37 245.57-33.98 249-35.6 253.47-35.6L253.47-35.6Q255.15-35.6 256.92-35.33 258.69-35.06 260.2-34.33ZM262.35-35.21L284.86-35.21Q284.71-32.91 284.59-30.66 284.47-28.42 284.27-26.12L284.27-26.12 273.92-25.59 273.68-22.51 280.95-22.51 280.42-14.94 273.09-14.7 272.85-11.13 278.9-11.13 283.2-11.13Q283.05-8.45 282.89-5.8 282.74-3.15 282.61-0.49L282.61-0.49 261.57 0 262.35-35.21Z" opacity="1" transform="matrix(1,0,0,1,0,0)" fill="#374151" class="slogan-text-1" data-fill-palette-color="secondary" id="text-1"></path></svg></g></svg></g></svg></g></svg></g><g><svg viewBox="0 0 229.40595944924303 263.3956995706891" height="263.3956995706891" width="229.40595944924303"><g><svg xmlns="http://www.w3.org/2000/svg" xmlns:xlink="http://www.w3.org/1999/xlink" version="1.1" x="0" y="0" viewBox="6.242586135864258 0.4998990297317505 77.5149154663086 88.99984741210938" enable-background="new 0 0 90 90" xml:space="preserve" height="263.3956995706891" width="229.40595944924303" class="icon-icon-0" data-fill-palette-color="accent" id="icon-0"><g fill="#374151" data-fill-palette-color="accent"><path d="M26.2 21.257c5.726 0.036 10.387-4.605 10.424-10.324C36.645 5.191 32.01 0.519 26.283 0.5c-5.742-0.025-10.404 4.595-10.42 10.323C15.835 16.574 20.449 21.247 26.2 21.257z" fill="#374151" data-fill-palette-color="accent"></path><path d="M18.76 25.513c0.053-0.062 0.11-0.121 0.164-0.181l-7.136-7.137-2.826 2.826 7.882 7.882C17.262 27.66 17.902 26.514 18.76 25.513z" fill="#374151" data-fill-palette-color="accent"></path><path d="M38.721 43.346c1.19 1.219 2.919 1.879 4.736 1.623l18.027-2.547c1.546-0.218 2.85-1.058 3.701-2.229l-2.435 6.533c-0.396 1.065 0.146 2.25 1.21 2.646 1.064 0.397 2.25-0.145 2.646-1.21l6.879-18.464c0.396-1.065-0.146-2.25-1.21-2.646-1.064-0.397-2.25 0.145-2.646 1.21l-3.407 9.145c0.035-0.406 0.028-0.821-0.031-1.242-0.427-3.027-3.229-5.135-6.257-4.708l-14.844 2.097-10.983-7.159c-5.429-6.544-17.726-2.376-16.13 7.843l5.476 27.359c0.044 0.223 0.096 0.444 0.154 0.663l15.748-15.748L38.721 43.346z" fill="#374151" data-fill-palette-color="accent"></path><path d="M82.136 80.049l-23.97-23.97c-1.066-1.066-2.461-1.604-3.859-1.618 0.034-0.012 0.066-0.025 0.1-0.036l-13.472-0.021-0.637-3.181L25.519 66.003c1.629 1.966 4.098 3.296 7.283 3.296h22.198l0.74 0.014 18.566 18.566c2.162 2.161 5.668 2.161 7.83 0C84.298 85.717 84.298 82.211 82.136 80.049z" fill="#374151" data-fill-palette-color="accent"></path><path d="M19.838 66.031c-0.359-0.816-0.636-1.671-0.813-2.552l-3.898-20.981c-1.21-6.682-10-5.09-8.766 1.601l3.768 20.879c1.451 7.571 6.959 14.111 14.875 16.478 2.039 0.592 4.118 0.896 6.147 0.896l13.384 0.059c6.792 0.028 6.837-8.888 0.078-8.836l-12.717-0.07c-1.394-0.104-2.843-0.155-4.253-0.577-2.218-0.661-4.109-1.891-5.569-3.478l3.446-3.446c-0.903-1.091-1.547-2.376-1.911-3.741L19.838 66.031z" fill="#374151" data-fill-palette-color="accent"></path></g></svg></g></svg></g></svg></g><defs></defs></svg><rect width="395.52" height="158.89974873543537" fill="none" stroke="none" visibility="hidden"></rect></g></svg></g></svg>