<svg width="24" height="24" viewBox="0 0 24 24" fill="none" xmlns="http://www.w3.org/2000/svg">
<path d="M16.4978 6.62513H7.06052C6.83087 6.62513 6.61063 6.5339 6.44825 6.37152C6.28587 6.20913 6.19464 5.98889 6.19464 5.75925C6.19464 5.52961 6.28587 5.30937 6.44825 5.14698C6.61063 4.9846 6.83087 4.89338 7.06052 4.89338H16.4978C16.7274 4.89338 16.9476 4.9846 17.11 5.14698C17.2724 5.30937 17.3636 5.52961 17.3636 5.75925C17.3636 5.98889 17.2724 6.20913 17.11 6.37152C16.9476 6.5339 16.7274 6.62513 16.4978 6.62513Z" fill="black"/>
<path d="M16.4978 10.9391H7.06052C6.83087 10.9391 6.61063 10.8479 6.44825 10.6855C6.28587 10.5231 6.19464 10.3029 6.19464 10.0732C6.19464 9.84361 6.28587 9.62337 6.44825 9.46098C6.61063 9.2986 6.83087 9.20737 7.06052 9.20737H16.4978C16.7274 9.20737 16.9476 9.2986 17.11 9.46098C17.2724 9.62337 17.3636 9.84361 17.3636 10.0732C17.3636 10.3029 17.2724 10.5231 17.11 10.6855C16.9476 10.8479 16.7274 10.9391 16.4978 10.9391Z" fill="black"/>
<path d="M8.81474 23.25H2.34261C2.23094 23.2504 2.12031 23.2285 2.0172 23.1856C1.91409 23.1427 1.82057 23.0796 1.74211 23.0002C1.66365 22.9207 1.60183 22.8264 1.56025 22.7227C1.51868 22.6191 1.49819 22.5082 1.49999 22.3965V1.6035C1.49819 1.49184 1.51868 1.38094 1.56025 1.27729C1.60183 1.17364 1.66365 1.07932 1.74211 0.999847C1.82057 0.920375 1.91409 0.857346 2.0172 0.814446C2.12031 0.771546 2.23094 0.749637 2.34261 0.750001H21.6574C21.769 0.749637 21.8797 0.771546 21.9828 0.814446C22.0859 0.857346 22.1794 0.920375 22.2579 0.999847C22.3363 1.07932 22.3981 1.17364 22.4397 1.27729C22.4813 1.38094 22.5018 1.49184 22.5 1.6035V14.1851C22.5038 14.2313 22.498 14.2778 22.4831 14.3216C22.5081 14.4564 22.4996 14.5952 22.4585 14.726C22.4174 14.8567 22.3449 14.9754 22.2472 15.0716L14.6966 22.5829C14.5797 22.6996 14.4303 22.7784 14.2679 22.8088C14.1055 22.8393 13.9377 22.82 13.7865 22.7535C13.6317 22.6886 13.4996 22.5795 13.4067 22.4398C13.3137 22.3001 13.2641 22.136 13.2641 21.9683V14.373C13.2653 14.1519 13.3517 13.9397 13.5054 13.7808C13.6591 13.6218 13.8682 13.5282 14.0891 13.5195L20.814 13.3489V2.457H3.18524V21.5445H8.81436C9.04072 21.5445 9.25781 21.6344 9.41788 21.7945C9.57794 21.9545 9.66786 22.1716 9.66786 22.398C9.66786 22.6244 9.57794 22.8415 9.41788 23.0015C9.25781 23.1616 9.04072 23.2515 8.81436 23.2515L8.81474 23.25ZM14.9647 15.1924V19.9211L19.8525 15.0728L14.9647 15.1924Z" fill="black"/>
</svg>
