<svg width="800" height="800" viewBox="0 0 800 800" fill="none" xmlns="http://www.w3.org/2000/svg">
<g clip-path="url(#clip0_100_94)">
<path d="M99.0298 301.008C44.2989 301.008 0 345.282 0 399.988C0 454.693 44.2489 498.992 99.0298 498.992C153.661 498.992 198.01 454.768 198.01 399.988C198.01 345.282 153.661 301.008 99.0298 301.008ZM405.129 301.008C350.523 301.008 306.099 345.257 306.099 399.963C306.099 454.669 350.473 498.967 405.129 498.967C459.785 498.967 504.208 454.743 504.208 399.963C504.158 345.282 459.785 301.008 405.129 301.008ZM701.045 301.008C646.339 301.008 601.99 345.282 601.99 400.012C601.99 454.669 646.264 498.967 701.045 498.967C755.651 498.967 800 454.743 800 400.012C800 345.282 755.651 301.008 701.045 301.008Z" fill="#F6F3ED"/>
</g>
<defs>
<clipPath id="clip0_100_94">
<rect width="800" height="800" fill="white"/>
</clipPath>
</defs>
</svg>
